# This file uses centimeters as units for non-parametric coordinates.

mtllib Car.mtl
g default
v 0.649584 -0.374337 1.524746
v 0.649584 -0.374337 -1.397549
v 0.649584 0.625663 1.524746
v 0.649584 0.625662 -1.397549
v -0.350416 0.625663 1.524746
v -0.350416 0.625662 -1.397549
v -0.350416 -0.374337 1.524746
v -0.350416 -0.374337 -1.397549
vt 0.449792 0.470386
vt 0.574426 0.470386
vt 0.449792 0.595020
vt 0.574426 0.595020
vt 0.449792 0.719653
vt 0.574426 0.719653
vt 0.449792 0.844287
vt 0.574426 0.844287
vt 0.449792 0.968921
vt 0.574426 0.968921
vt 0.699060 0.470386
vt 0.699060 0.595020
vt 0.325158 0.470386
vt 0.325158 0.595020
vn 1.000000 -0.000000 0.000000
vn 1.000000 -0.000000 0.000000
vn 1.000000 -0.000000 0.000000
vn 1.000000 -0.000000 0.000000
vn 0.000000 1.000000 -0.000000
vn 0.000000 1.000000 -0.000000
vn 0.000000 1.000000 -0.000000
vn 0.000000 1.000000 -0.000000
vn -1.000000 -0.000000 -0.000000
vn -1.000000 -0.000000 -0.000000
vn -1.000000 -0.000000 -0.000000
vn -1.000000 -0.000000 -0.000000
vn 0.000000 -1.000000 -0.000000
vn 0.000000 -1.000000 -0.000000
vn 0.000000 -1.000000 -0.000000
vn 0.000000 -1.000000 -0.000000
vn 0.000000 -0.000000 -1.000000
vn 0.000000 -0.000000 -1.000000
vn 0.000000 -0.000000 -1.000000
vn 0.000000 -0.000000 -1.000000
vn 0.000000 0.000000 1.000000
vn 0.000000 0.000000 1.000000
vn 0.000000 0.000000 1.000000
vn 0.000000 0.000000 1.000000
s off
g pCube1
usemtl initialShadingGroup
f 1/1/1 2/2/2 4/4/3 3/3/4
f 3/3/5 4/4/6 6/6/7 5/5/8
f 5/5/9 6/6/10 8/8/11 7/7/12
f 7/7/13 8/8/14 2/10/15 1/9/16
f 2/2/17 8/11/18 6/12/19 4/4/20
f 7/13/21 1/1/22 3/3/23 5/14/24
g default
v -0.493866 -0.164698 0.397455
v -0.492647 -0.066296 0.447597
v -0.491681 0.011796 0.525696
v -0.491060 0.061936 0.624106
v -0.490846 0.079212 0.733194
v -0.491060 0.061935 0.842283
v -0.491681 0.011796 0.940693
v -0.492647 -0.066296 1.018791
v -0.493865 -0.164699 1.068934
v -0.495216 -0.273779 1.086212
v -0.496566 -0.382859 1.068934
v -0.497784 -0.481261 1.018791
v -0.498751 -0.559354 0.940693
v -0.499371 -0.609493 0.842283
v -0.499586 -0.626768 0.733194
v -0.499372 -0.609492 0.624106
v -0.498751 -0.559354 0.525696
v -0.497784 -0.481261 0.447597
v -0.496566 -0.382859 0.397455
v -0.495216 -0.273778 0.380177
v 0.727442 -0.179817 0.397455
v 0.728660 -0.081415 0.447597
v 0.729627 -0.003322 0.525696
v 0.730247 0.046817 0.624106
v 0.730461 0.064093 0.733194
v 0.730248 0.046817 0.842283
v 0.729627 -0.003322 0.940693
v 0.728660 -0.081415 1.018791
v 0.727442 -0.179817 1.068934
v 0.726092 -0.288897 1.086212
v 0.724741 -0.397977 1.068934
v 0.723523 -0.496380 1.018791
v 0.722557 -0.574472 0.940693
v 0.721936 -0.624611 0.842283
v 0.721722 -0.641887 0.733194
v 0.721936 -0.624610 0.624106
v 0.722557 -0.574472 0.525696
v 0.723523 -0.496379 0.447597
v 0.724741 -0.397978 0.397455
v 0.726092 -0.288897 0.380177
v -0.495216 -0.273779 0.733194
v 0.726092 -0.288897 0.733194
vt 0.756106 0.167510
vt 0.738410 0.132778
vt 0.710847 0.105215
vt 0.676115 0.087519
vt 0.637615 0.081421
vt 0.599115 0.087519
vt 0.564384 0.105215
vt 0.536821 0.132778
vt 0.519124 0.167510
vt 0.513026 0.206010
vt 0.519124 0.244510
vt 0.536821 0.279242
vt 0.564384 0.306805
vt 0.599115 0.324501
vt 0.637615 0.330599
vt 0.676115 0.324501
vt 0.710847 0.306805
vt 0.738410 0.279242
vt 0.756106 0.244510
vt 0.762204 0.206010
vt 0.181818 0.046728
vt 0.191785 0.046728
vt 0.201753 0.046728
vt 0.211720 0.046728
vt 0.221687 0.046728
vt 0.231654 0.046728
vt 0.241621 0.046728
vt 0.251588 0.046728
vt 0.261555 0.046728
vt 0.271522 0.046728
vt 0.281489 0.046728
vt 0.291456 0.046728
vt 0.301424 0.046728
vt 0.311391 0.046728
vt 0.321358 0.046728
vt 0.331325 0.046728
vt 0.341292 0.046728
vt 0.351259 0.046728
vt 0.361226 0.046728
vt 0.371193 0.046728
vt 0.381161 0.046728
vt 0.181818 0.346491
vt 0.191785 0.346491
vt 0.201753 0.346491
vt 0.211720 0.346491
vt 0.221687 0.346491
vt 0.231654 0.346491
vt 0.241621 0.346491
vt 0.251588 0.346491
vt 0.261555 0.346491
vt 0.271522 0.346491
vt 0.281489 0.346491
vt 0.291456 0.346491
vt 0.301424 0.346491
vt 0.311391 0.346491
vt 0.321358 0.346491
vt 0.331325 0.346491
vt 0.341292 0.346491
vt 0.351259 0.346491
vt 0.361226 0.346491
vt 0.371193 0.346491
vt 0.381161 0.346491
vt 0.756175 0.166276
vt 0.738479 0.131544
vt 0.710916 0.103981
vt 0.676184 0.086285
vt 0.637684 0.080187
vt 0.599184 0.086285
vt 0.564453 0.103981
vt 0.536890 0.131545
vt 0.519193 0.166276
vt 0.513095 0.204776
vt 0.519193 0.243276
vt 0.536890 0.278008
vt 0.564453 0.305571
vt 0.599184 0.323267
vt 0.637684 0.329365
vt 0.676184 0.323267
vt 0.710916 0.305571
vt 0.738479 0.278008
vt 0.756175 0.243276
vt 0.762273 0.204776
vt 0.637615 0.201026
vt 0.637684 0.199792
vn 0.003825 0.308993 -0.951057
vn 0.007276 0.587741 -0.809017
vn 0.007276 0.587741 -0.809017
vn 0.003825 0.308993 -0.951057
vn 0.010014 0.808954 -0.587786
vn 0.010014 0.808954 -0.587786
vn 0.011772 0.950984 -0.309017
vn 0.011772 0.950984 -0.309017
vn 0.012378 0.999923 0.000003
vn 0.012378 0.999923 0.000003
vn 0.011772 0.950984 0.309017
vn 0.011772 0.950984 0.309017
vn 0.010014 0.808954 0.587786
vn 0.010014 0.808954 0.587786
vn 0.007276 0.587740 0.809017
vn 0.007276 0.587740 0.809017
vn 0.003825 0.308993 0.951056
vn 0.003825 0.308994 0.951056
vn 0.000000 -0.000000 1.000000
vn 0.000000 -0.000000 1.000000
vn -0.003825 -0.308994 0.951056
vn -0.003825 -0.308994 0.951056
vn -0.007276 -0.587740 0.809017
vn -0.007276 -0.587740 0.809017
vn -0.010014 -0.808954 0.587787
vn -0.010014 -0.808954 0.587787
vn -0.011772 -0.950984 0.309016
vn -0.011772 -0.950984 0.309016
vn -0.012378 -0.999923 -0.000004
vn -0.012378 -0.999923 -0.000004
vn -0.011772 -0.950984 -0.309015
vn -0.011772 -0.950984 -0.309015
vn -0.010014 -0.808955 -0.587785
vn -0.010014 -0.808955 -0.587785
vn -0.007276 -0.587741 -0.809017
vn -0.007276 -0.587741 -0.809017
vn -0.003825 -0.308994 -0.951056
vn -0.003825 -0.308994 -0.951056
vn -0.000000 -0.000002 -1.000000
vn -0.000000 -0.000001 -1.000000
vn -0.999923 0.012379 -0.000000
vn -0.999923 0.012378 -0.000000
vn -0.999923 0.012378 0.000000
vn -0.999923 0.012379 -0.000000
vn -0.999923 0.012378 -0.000001
vn -0.999923 0.012378 0.000000
vn -0.999923 0.012379 0.000001
vn -0.999923 0.012379 -0.000000
vn -0.999923 0.012378 0.000001
vn -0.999923 0.012378 0.000001
vn -0.999923 0.012378 0.000001
vn -0.999923 0.012378 0.000001
vn -0.999923 0.012379 0.000001
vn -0.999923 0.012378 -0.000001
vn -0.999923 0.012377 0.000001
vn -0.999923 0.012378 0.000001
vn -0.999923 0.012377 -0.000001
vn -0.999923 0.012377 0.000000
vn -0.999923 0.012378 0.000000
vn -0.999923 0.012379 -0.000000
vn -0.999923 0.012378 -0.000001
vn 0.999923 -0.012378 0.000000
vn 0.999923 -0.012378 0.000000
vn 0.999923 -0.012378 -0.000000
vn 0.999923 -0.012378 0.000000
vn 0.999923 -0.012378 0.000000
vn 0.999923 -0.012378 -0.000000
vn 0.999923 -0.012378 -0.000000
vn 0.999923 -0.012379 -0.000001
vn 0.999923 -0.012379 -0.000001
vn 0.999923 -0.012378 0.000000
vn 0.999923 -0.012378 -0.000000
vn 0.999923 -0.012378 0.000000
vn 0.999923 -0.012378 -0.000001
vn 0.999923 -0.012378 -0.000001
vn 0.999923 -0.012378 -0.000000
vn 0.999923 -0.012378 0.000000
vn 0.999923 -0.012378 0.000000
vn 0.999923 -0.012378 0.000000
vn 0.999923 -0.012378 0.000000
vn 0.999923 -0.012378 0.000000
vn 0.999923 -0.012377 0.000000
s 1
g pCylinder1
usemtl initialShadingGroup
f 9/35/25 10/36/26 30/57/27 29/56/28
f 10/36/26 11/37/29 31/58/30 30/57/27
f 11/37/29 12/38/31 32/59/32 31/58/30
f 12/38/31 13/39/33 33/60/34 32/59/32
f 13/39/33 14/40/35 34/61/36 33/60/34
f 14/40/35 15/41/37 35/62/38 34/61/36
f 15/41/37 16/42/39 36/63/40 35/62/38
f 16/42/39 17/43/41 37/64/42 36/63/40
f 17/43/41 18/44/43 38/65/44 37/64/42
f 18/44/43 19/45/45 39/66/46 38/65/44
f 19/45/45 20/46/47 40/67/48 39/66/46
f 20/46/47 21/47/49 41/68/50 40/67/48
f 21/47/49 22/48/51 42/69/52 41/68/50
f 22/48/51 23/49/53 43/70/54 42/69/52
f 23/49/53 24/50/55 44/71/56 43/70/54
f 24/50/55 25/51/57 45/72/58 44/71/56
f 25/51/57 26/52/59 46/73/60 45/72/58
f 26/52/59 27/53/61 47/74/62 46/73/60
f 27/53/61 28/54/63 48/75/64 47/74/62
f 28/54/63 9/55/25 29/76/28 48/75/64
s 2
f 10/16/65 9/15/66 49/97/67
f 11/17/68 10/16/65 49/97/67
f 12/18/69 11/17/68 49/97/67
f 13/19/70 12/18/69 49/97/67
f 14/20/71 13/19/70 49/97/67
f 15/21/72 14/20/71 49/97/67
f 16/22/73 15/21/72 49/97/67
f 17/23/74 16/22/73 49/97/67
f 18/24/75 17/23/74 49/97/67
f 19/25/76 18/24/75 49/97/67
f 20/26/77 19/25/76 49/97/67
f 21/27/78 20/26/77 49/97/67
f 22/28/79 21/27/78 49/97/67
f 23/29/80 22/28/79 49/97/67
f 24/30/81 23/29/80 49/97/67
f 25/31/82 24/30/81 49/97/67
f 26/32/83 25/31/82 49/97/67
f 27/33/84 26/32/83 49/97/67
f 28/34/85 27/33/84 49/97/67
f 9/15/66 28/34/85 49/97/67
s 3
f 29/95/86 30/94/87 50/98/88
f 30/94/87 31/93/89 50/98/88
f 31/93/89 32/92/90 50/98/88
f 32/92/90 33/91/91 50/98/88
f 33/91/91 34/90/92 50/98/88
f 34/90/92 35/89/93 50/98/88
f 35/89/93 36/88/94 50/98/88
f 36/88/94 37/87/95 50/98/88
f 37/87/95 38/86/96 50/98/88
f 38/86/96 39/85/97 50/98/88
f 39/85/97 40/84/98 50/98/88
f 40/84/98 41/83/99 50/98/88
f 41/83/99 42/82/100 50/98/88
f 42/82/100 43/81/101 50/98/88
f 43/81/101 44/80/102 50/98/88
f 44/80/102 45/79/103 50/98/88
f 45/79/103 46/78/104 50/98/88
f 46/78/104 47/77/105 50/98/88
f 47/77/105 48/96/106 50/98/88
f 48/96/106 29/95/86 50/98/88
g default
v -0.452447 -0.164699 -0.948673
v -0.451229 -0.066296 -0.898531
v -0.450262 0.011797 -0.820432
v -0.449641 0.061935 -0.722022
v -0.449428 0.079212 -0.612933
v -0.449641 0.061935 -0.503845
v -0.450262 0.011797 -0.405435
v -0.451229 -0.066296 -0.327336
v -0.452447 -0.164698 -0.277194
v -0.453797 -0.273779 -0.259916
v -0.455148 -0.382859 -0.277194
v -0.456366 -0.481261 -0.327336
v -0.457332 -0.559353 -0.405435
v -0.457953 -0.609492 -0.503845
v -0.458167 -0.626769 -0.612933
v -0.457953 -0.609492 -0.722022
v -0.457332 -0.559354 -0.820432
v -0.456366 -0.481261 -0.898530
v -0.455147 -0.382858 -0.948673
v -0.453797 -0.273779 -0.965951
v 0.768861 -0.179817 -0.948673
v 0.770079 -0.081415 -0.898531
v 0.771045 -0.003322 -0.820432
v 0.771666 0.046817 -0.722022
v 0.771880 0.064093 -0.612933
v 0.771666 0.046817 -0.503845
v 0.771045 -0.003322 -0.405435
v 0.770079 -0.081415 -0.327336
v 0.768861 -0.179817 -0.277194
v 0.767510 -0.288897 -0.259916
v 0.766160 -0.397977 -0.277194
v 0.764942 -0.496380 -0.327336
v 0.763975 -0.574472 -0.405435
v 0.763354 -0.624611 -0.503845
v 0.763140 -0.641888 -0.612933
v 0.763355 -0.624611 -0.722022
v 0.763975 -0.574472 -0.820432
v 0.764942 -0.496380 -0.898530
v 0.766160 -0.397977 -0.948673
v 0.767510 -0.288897 -0.965951
v -0.453797 -0.273779 -0.612933
v 0.767510 -0.288897 -0.612933
vt 0.754710 0.165698
vt 0.737014 0.130967
vt 0.709450 0.103404
vt 0.674719 0.085707
vt 0.636219 0.079609
vt 0.597719 0.085707
vt 0.562987 0.103404
vt 0.535424 0.130967
vt 0.517728 0.165698
vt 0.511630 0.204198
vt 0.517728 0.242698
vt 0.535424 0.277430
vt 0.562987 0.304993
vt 0.597719 0.322689
vt 0.636219 0.328787
vt 0.674719 0.322689
vt 0.709450 0.304993
vt 0.737014 0.277430
vt 0.754710 0.242698
vt 0.760808 0.204198
vt 0.182375 0.047542
vt 0.192342 0.047542
vt 0.202309 0.047542
vt 0.212276 0.047542
vt 0.222243 0.047542
vt 0.232210 0.047542
vt 0.242177 0.047542
vt 0.252145 0.047542
vt 0.262112 0.047542
vt 0.272079 0.047542
vt 0.282046 0.047542
vt 0.292013 0.047542
vt 0.301980 0.047542
vt 0.311947 0.047542
vt 0.321914 0.047542
vt 0.331881 0.047542
vt 0.341848 0.047542
vt 0.351816 0.047542
vt 0.361783 0.047542
vt 0.371750 0.047542
vt 0.381717 0.047542
vt 0.182375 0.347305
vt 0.192342 0.347305
vt 0.202309 0.347305
vt 0.212276 0.347305
vt 0.222243 0.347305
vt 0.232210 0.347305
vt 0.242177 0.347305
vt 0.252145 0.347305
vt 0.262112 0.347305
vt 0.272079 0.347305
vt 0.282046 0.347305
vt 0.292013 0.347305
vt 0.301980 0.347305
vt 0.311947 0.347305
vt 0.321914 0.347305
vt 0.331881 0.347305
vt 0.341848 0.347305
vt 0.351816 0.347305
vt 0.361783 0.347305
vt 0.371750 0.347305
vt 0.381717 0.347305
vt 0.756106 0.165672
vt 0.738410 0.130941
vt 0.710847 0.103378
vt 0.676115 0.085681
vt 0.637615 0.079583
vt 0.599115 0.085681
vt 0.564384 0.103378
vt 0.536821 0.130941
vt 0.519124 0.165672
vt 0.513026 0.204172
vt 0.519124 0.242673
vt 0.536821 0.277404
vt 0.564384 0.304967
vt 0.599115 0.322664
vt 0.637615 0.328761
vt 0.676115 0.322664
vt 0.710847 0.304967
vt 0.738410 0.277404
vt 0.756106 0.242673
vt 0.762204 0.204172
vt 0.636219 0.199215
vt 0.637615 0.199189
vn 0.003825 0.308993 -0.951057
vn 0.007276 0.587740 -0.809017
vn 0.007276 0.587740 -0.809017
vn 0.003825 0.308992 -0.951057
vn 0.010014 0.808955 -0.587785
vn 0.010014 0.808956 -0.587785
vn 0.011772 0.950984 -0.309016
vn 0.011772 0.950984 -0.309016
vn 0.012378 0.999923 -0.000000
vn 0.012378 0.999923 -0.000000
vn 0.011772 0.950984 0.309016
vn 0.011772 0.950984 0.309016
vn 0.010014 0.808955 0.587785
vn 0.010014 0.808955 0.587785
vn 0.007276 0.587740 0.809017
vn 0.007276 0.587740 0.809017
vn 0.003825 0.308993 0.951057
vn 0.003825 0.308993 0.951057
vn -0.000000 -0.000000 1.000000
vn -0.000000 -0.000000 1.000000
vn -0.003825 -0.308994 0.951056
vn -0.003825 -0.308994 0.951056
vn -0.007276 -0.587741 0.809016
vn -0.007276 -0.587741 0.809016
vn -0.010014 -0.808955 0.587785
vn -0.010014 -0.808955 0.587785
vn -0.011772 -0.950983 0.309020
vn -0.011772 -0.950983 0.309020
vn -0.012378 -0.999923 0.000001
vn -0.012378 -0.999923 0.000001
vn -0.011772 -0.950984 -0.309017
vn -0.011772 -0.950984 -0.309017
vn -0.010014 -0.808955 -0.587785
vn -0.010014 -0.808955 -0.587785
vn -0.007276 -0.587740 -0.809018
vn -0.007276 -0.587739 -0.809018
vn -0.003825 -0.308993 -0.951056
vn -0.003825 -0.308993 -0.951056
vn 0.000000 -0.000001 -1.000000
vn 0.000000 -0.000001 -1.000000
vn -0.999923 0.012378 -0.000000
vn -0.999923 0.012378 -0.000000
vn -0.999923 0.012378 -0.000000
vn -0.999923 0.012378 -0.000000
vn -0.999923 0.012378 -0.000000
vn -0.999923 0.012378 0.000000
vn -0.999923 0.012378 0.000000
vn -0.999923 0.012378 -0.000000
vn -0.999923 0.012378 -0.000000
vn -0.999923 0.012377 0.000000
vn -0.999923 0.012378 0.000000
vn -0.999923 0.012379 0.000000
vn -0.999923 0.012378 0.000000
vn -0.999923 0.012378 -0.000000
vn -0.999923 0.012378 -0.000000
vn -0.999923 0.012378 0.000000
vn -0.999923 0.012378 -0.000000
vn -0.999923 0.012378 -0.000000
vn -0.999923 0.012378 -0.000000
vn -0.999923 0.012378 -0.000000
vn -0.999923 0.012378 -0.000000
vn 0.999923 -0.012378 0.000001
vn 0.999923 -0.012378 0.000000
vn 0.999923 -0.012378 0.000000
vn 0.999923 -0.012379 -0.000001
vn 0.999923 -0.012379 0.000000
vn 0.999923 -0.012378 0.000001
vn 0.999923 -0.012378 -0.000001
vn 0.999923 -0.012378 -0.000001
vn 0.999923 -0.012378 -0.000000
vn 0.999923 -0.012378 -0.000000
vn 0.999923 -0.012378 -0.000000
vn 0.999923 -0.012378 -0.000000
vn 0.999923 -0.012377 -0.000000
vn 0.999923 -0.012379 -0.000001
vn 0.999923 -0.012378 -0.000001
vn 0.999923 -0.012378 0.000001
vn 0.999923 -0.012378 0.000001
vn 0.999923 -0.012378 0.000001
vn 0.999923 -0.012377 0.000001
vn 0.999923 -0.012377 0.000000
vn 0.999923 -0.012378 0.000000
s 1
g pCylinder2
usemtl initialShadingGroup
f 51/119/107 52/120/108 72/141/109 71/140/110
f 52/120/108 53/121/111 73/142/112 72/141/109
f 53/121/111 54/122/113 74/143/114 73/142/112
f 54/122/113 55/123/115 75/144/116 74/143/114
f 55/123/115 56/124/117 76/145/118 75/144/116
f 56/124/117 57/125/119 77/146/120 76/145/118
f 57/125/119 58/126/121 78/147/122 77/146/120
f 58/126/121 59/127/123 79/148/124 78/147/122
f 59/127/123 60/128/125 80/149/126 79/148/124
f 60/128/125 61/129/127 81/150/128 80/149/126
f 61/129/127 62/130/129 82/151/130 81/150/128
f 62/130/129 63/131/131 83/152/132 82/151/130
f 63/131/131 64/132/133 84/153/134 83/152/132
f 64/132/133 65/133/135 85/154/136 84/153/134
f 65/133/135 66/134/137 86/155/138 85/154/136
f 66/134/137 67/135/139 87/156/140 86/155/138
f 67/135/139 68/136/141 88/157/142 87/156/140
f 68/136/141 69/137/143 89/158/144 88/157/142
f 69/137/143 70/138/145 90/159/146 89/158/144
f 70/138/145 51/139/107 71/160/110 90/159/146
s 2
f 52/100/147 51/99/148 91/181/149
f 53/101/150 52/100/147 91/181/149
f 54/102/151 53/101/150 91/181/149
f 55/103/152 54/102/151 91/181/149
f 56/104/153 55/103/152 91/181/149
f 57/105/154 56/104/153 91/181/149
f 58/106/155 57/105/154 91/181/149
f 59/107/156 58/106/155 91/181/149
f 60/108/157 59/107/156 91/181/149
f 61/109/158 60/108/157 91/181/149
f 62/110/159 61/109/158 91/181/149
f 63/111/160 62/110/159 91/181/149
f 64/112/161 63/111/160 91/181/149
f 65/113/162 64/112/161 91/181/149
f 66/114/163 65/113/162 91/181/149
f 67/115/164 66/114/163 91/181/149
f 68/116/165 67/115/164 91/181/149
f 69/117/166 68/116/165 91/181/149
f 70/118/167 69/117/166 91/181/149
f 51/99/148 70/118/167 91/181/149
s 3
f 71/179/168 72/178/169 92/182/170
f 72/178/169 73/177/171 92/182/170
f 73/177/171 74/176/172 92/182/170
f 74/176/172 75/175/173 92/182/170
f 75/175/173 76/174/174 92/182/170
f 76/174/174 77/173/175 92/182/170
f 77/173/175 78/172/176 92/182/170
f 78/172/176 79/171/177 92/182/170
f 79/171/177 80/170/178 92/182/170
f 80/170/178 81/169/179 92/182/170
f 81/169/179 82/168/180 92/182/170
f 82/168/180 83/167/181 92/182/170
f 83/167/181 84/166/182 92/182/170
f 84/166/182 85/165/183 92/182/170
f 85/165/183 86/164/184 92/182/170
f 86/164/184 87/163/185 92/182/170
f 87/163/185 88/162/186 92/182/170
f 88/162/186 89/161/187 92/182/170
f 89/161/187 90/180/188 92/182/170
f 90/180/188 71/179/168 92/182/170
